<?xml version="1.0" encoding="UTF-8" standalone="no"?>
<svg width="16px" height="16px" viewBox="0 0 16 16" version="1.1" xmlns="http://www.w3.org/2000/svg" xmlns:xlink="http://www.w3.org/1999/xlink">
    <!-- Generator: sketchtool 3.8.3 (29802) - http://www.bohemiancoding.com/sketch -->
    <title>59038038-59B7-45AE-9514-9F4AC4B0D381</title>
    <desc>Created with sketchtool.</desc>
    <defs></defs>
    <g id="连锁管理" stroke="none" stroke-width="1" fill="none" fill-rule="evenodd">
        <g id="连锁管理－员工设置" transform="translate(-37.000000, -466.000000)">
            <g id="Group-9" transform="translate(36.000000, 212.000000)">
                <g id="Page-1" transform="translate(1.000000, 253.000000)">
                    <g id="Group-11" transform="translate(2.000000, 3.000000)">
                        <polyline id="Stroke-1" stroke="#FFFFFF" stroke-linecap="round" stroke-linejoin="round" points="0 1 0 10 11 10"></polyline>
                        <path d="M3.57391357,9 L2.42608643,9 C2.1917692,9 2,8.81818182 2,8.59602345 L2,6.40397655 C2,6.18181818 2.1917692,6 2.42608643,6 L3.57391357,6 C3.8082308,6 4,6.18181818 4,6.40397655 L4,8.59602345 C4,8.81818182 3.8082308,9 3.57391357,9" id="Fill-3" fill="#FFFFFF"></path>
                        <path d="M6.57391357,9 L5.42608643,9 C5.1917692,9 5,8.7925722 5,8.53912217 L5,5.46087783 C5,5.20729669 5.1917692,5 5.42608643,5 L6.57391357,5 C6.8082308,5 7,5.20729669 7,5.46087783 L7,8.53912217 C7,8.7925722 6.8082308,9 6.57391357,9" id="Fill-5" fill="#FFFFFF"></path>
                        <path d="M10.5739136,9 L9.42608643,9 C9.1917692,9 9,8.78440502 9,8.52097576 L9,3.47902424 C9,3.21559498 9.1917692,3 9.42608643,3 L10.5739136,3 C10.8082308,3 11,3.21559498 11,3.47902424 L11,8.52097576 C11,8.78440502 10.8082308,9 10.5739136,9" id="Fill-7" fill="#FFFFFF"></path>
                        <path d="M4.59550457,3.16961148 C4.77323292,2.99013549 5.06042469,2.99013549 5.23851232,3.16961148 L6.00511553,3.94568458 C6.11350108,4.05499406 6.26045033,4.11667757 6.41362726,4.11667757 C6.56680418,4.11667757 6.71411272,4.05499406 6.82237851,3.94568458 L9.2302144,1.5090041 L9.62160001,1.90552364 C9.68160129,1.96587411 9.77142357,1.98429434 9.84891025,1.95254369 C9.92711552,1.92018711 9.97897291,1.84384013 9.98017054,1.75876778 L9.99993144,0.378705252 C10.0018477,0.27860588 9.96352348,0.182384449 9.89382139,0.111248455 C9.82471812,0.0401124603 9.72998556,0 9.63201939,0 L8.24552269,0 C8.16013165,0 8.08420188,0.0515039143 8.05150657,0.130880535 C8.01893102,0.210378342 8.03713501,0.301873531 8.09797463,0.362224 L8.43211351,0.700816791 L6.73674793,2.41644247 C6.65159641,2.50272668 6.53578556,2.55168569 6.41518418,2.55168569 C6.29470256,2.55168569 6.17913123,2.50309023 6.09374018,2.4170484 L5.24006924,1.55287331 C5.06234089,1.37303376 4.77478984,1.37303376 4.59706149,1.55287331 L2.14072157,4.03717977 C2.05089929,4.12806903 2,4.25192079 2,4.38098354 C2,4.50992511 2.05054,4.63317094 2.14072157,4.72466613 L2.27916764,4.86512034 C2.45713552,5.04495989 2.74408776,5.04495989 2.92205563,4.86512034 L4.59550457,3.16961148 Z" id="Fill-9" fill="#FFFFFF"></path>
                    </g>
                </g>
            </g>
        </g>
    </g>
</svg>