<?xml version="1.0" encoding="UTF-8" standalone="no"?>
<svg width="16px" height="16px" viewBox="0 0 16 16" version="1.1" xmlns="http://www.w3.org/2000/svg" xmlns:xlink="http://www.w3.org/1999/xlink">
    <!-- Generator: sketchtool 3.8.3 (29802) - http://www.bohemiancoding.com/sketch -->
    <title>65260E2A-F5BA-40BB-BBE3-2F7C246A8A5D</title>
    <desc>Created with sketchtool.</desc>
    <defs></defs>
    <g id="连锁管理" stroke="none" stroke-width="1" fill="none" fill-rule="evenodd">
        <g id="连锁管理－员工设置" transform="translate(-37.000000, -320.000000)">
            <g id="Group-9" transform="translate(36.000000, 212.000000)">
                <g id="Page-1" transform="translate(1.000000, 108.000000)">
                    <g id="Group-3" transform="translate(6.000000, 3.000000)">
                        <polygon id="Clip-2" points="6 7 6 1.78422655e-15 0 0 0 7 6 7"></polygon>
                        <path d="M2.9254307,7 L2.91589498,7 C0.909580217,6.99610783 0.134517175,5.40559252 0.0050857155,4.56513551 C0.00178000042,4.54328915 0,4.52106613 0,4.49896867 L0,0.439438237 C0,0.196742776 0.199360047,0 0.445000106,0 L1.68019326,0 C1.92596046,0 2.12519336,0.196742776 2.12519336,0.439438237 C2.12519336,0.682133697 1.92596046,0.878876473 1.68019326,0.878876473 L0.890000212,0.878876473 L0.890000212,4.46042365 C0.934754508,4.68529048 1.28388888,6.11798468 2.91767498,6.12112353 L2.92530355,6.12112353 C4.9114026,6.12112353 5.09397978,4.6942048 5.10999979,4.48440443 L5.10999979,0.878876473 L4.39164247,0.878876473 C4.14600242,0.878876473 3.94664237,0.682133697 3.94664237,0.439438237 C3.94664237,0.196742776 4.14600242,0 4.39164247,0 L5.55499989,0 C5.80063995,0 6,0.196742776 6,0.439438237 L6,4.49896867 C6,4.50625078 5.99987286,4.51340735 5.99949143,4.52056392 C5.99822,4.54542356 5.84196139,7 2.9254307,7" id="Fill-1" fill="#FFFFFF"></path>
                    </g>
                    <path d="M10.5,4 L10.5,4 C10.2250327,4 10,3.77819687 10,3.50717571 L10,3.49282429 C10,3.22171113 10.2250327,3 10.5,3 C10.7749673,3 11,3.22171113 11,3.49282429 L11,3.50717571 C11,3.77819687 10.7749673,4 10.5,4" id="Fill-4" fill="#FFFFFF"></path>
                    <path d="M7.5,4 L7.5,4 C7.22503267,4 7,3.77819687 7,3.50717571 L7,3.49282429 C7,3.22171113 7.22503267,3 7.5,3 C7.77496733,3 8,3.22171113 8,3.49282429 L8,3.50717571 C8,3.77819687 7.77496733,4 7.5,4" id="Fill-6" fill="#FFFFFF"></path>
                    <path d="M3.5,8 C3.22390335,8 3,7.77609665 3,7.5 C3,7.22390335 3.22390335,7 3.5,7 C3.77609665,7 4,7.22390335 4,7.5 C4,7.77609665 3.77609665,8 3.5,8 M3.5,6 C2.67155452,6 2,6.67166257 2,7.5000696 C2,8.32847664 2.67155452,9 3.5,9 C4.32844548,9 5,8.32847664 5,7.5000696 C5,6.67166257 4.32844548,6 3.5,6" id="Fill-8" fill="#FFFFFF"></path>
                    <path d="M3,10.2621572 L3,8 L3.91854907,8 L3.91854907,10.2621572 C3.91854907,11.7822675 5.076577,13.0190125 6.50006561,13.0190125 C7.923423,13.0190125 9.08145093,11.7822675 9.08145093,10.2621572 L10,10.2621572 C10,12.323212 8.4299372,14 6.50006561,14 C4.57019402,14 3,12.323212 3,10.2621572 Z" id="Fill-10" fill="#FFFFFF"></path>
                </g>
            </g>
        </g>
    </g>
</svg>