<?xml version="1.0" encoding="UTF-8" standalone="no"?>
<svg width="16px" height="16px" viewBox="0 0 16 16" version="1.1" xmlns="http://www.w3.org/2000/svg" xmlns:xlink="http://www.w3.org/1999/xlink">
    <!-- Generator: sketchtool 3.8.3 (29802) - http://www.bohemiancoding.com/sketch -->
    <title>CE950900-5140-40D8-83C7-EF6356844C19</title>
    <desc>Created with sketchtool.</desc>
    <defs></defs>
    <g id="连锁管理" stroke="none" stroke-width="1" fill="none" fill-rule="evenodd">
        <g id="连锁管理－员工设置" transform="translate(-38.000000, -502.000000)" fill="#FFFFFF">
            <g id="Group-9" transform="translate(36.000000, 212.000000)">
                <g id="Page-1" transform="translate(1.000000, 289.000000)">
                    <path d="M8,7 L5.0081565,7 L5,9 L8,9 L8,7 Z M4,13 L14,13 L14,12 L4,12 L4,13 Z M11,7 L11,8 L11.9930844,8 L12,7 L11,7 Z M9,8 L10,8 L10,7 L9,7 L9,8 Z M9,11 L10,11 L10,10 L9,10 L9,11 Z M9,10 L10,10 L10,9 L9,9 L9,10 Z M11,10 L11,11 L11.9928902,11 L12,10 L11,10 Z M11,10 L11.9929898,10 L12,9 L11,9 L11,10 Z M9,4 L12,4 L12,3 L9,3 L9,4 Z M11.4300221,5.88112876 C12.0040784,5.88112876 12.4742187,6.38246475 12.4742187,6.86277236 L13.2792251,11.1401386 L13.9844355,11.1401386 L14,14 L3,14 L3,11.1401386 L3.63814557,11.1401386 L4.44315202,6.86277236 C4.44315202,6.38246475 4.91306338,5.88112876 5.48734862,5.88112876 L8.43797079,5.88112876 L9.00859378,5.88112876 L9.4077781,5.88112876 L9.4077781,5.13008059 L7.77556286,5.13008059 L7.77556286,3 L12.3856382,3 L12.3856382,5.13008059 L10.7811186,5.13008059 L10.7811186,5.88112876 L11.4300221,5.88112876 Z" id="Fill-1"></path>
                </g>
            </g>
        </g>
    </g>
</svg>