<?xml version="1.0" encoding="UTF-8" standalone="no"?>
<svg width="16px" height="16px" viewBox="0 0 16 16" version="1.1" xmlns="http://www.w3.org/2000/svg" xmlns:xlink="http://www.w3.org/1999/xlink">
    <!-- Generator: sketchtool 3.8.3 (29802) - http://www.bohemiancoding.com/sketch -->
    <title>F75163E6-F08A-491B-A3E8-B92BB19B5E86</title>
    <desc>Created with sketchtool.</desc>
    <defs></defs>
    <g id="连锁管理" stroke="none" stroke-width="1" fill="none" fill-rule="evenodd">
        <g id="连锁管理－员工设置" transform="translate(-38.000000, -565.000000)">
            <g id="Group-9" transform="translate(36.000000, 212.000000)">
                <g id="Group-7" transform="translate(1.000000, 353.000000)">
                    <g id="Page-1" transform="translate(1.000000, 0.000000)">
                        <path d="M13.6326095,6.19950527 L12.5819842,6.19950527 L12.5819842,6.70043689 L13.0639481,6.56389673 C12.9481644,6.15519963 12.7856067,5.7660209 12.578914,5.40264192 L12.1434928,5.65031272 L12.4978221,6.00440764 L13.2547835,5.24694513 C13.7906051,4.71151831 13.7906051,3.84239726 13.2545358,3.30672276 L12.6387739,2.69096076 C12.1031509,2.15533781 11.2345823,2.15533781 10.6986952,2.69083032 L9.92801517,3.46176088 L10.2822849,3.81591544 L10.5228831,3.3765466 C10.1862821,3.19222401 9.82241963,3.04530358 9.4365041,2.9358439 L9.29981368,3.41776528 L9.80074529,3.41776528 L9.80074529,2.36764111 C9.80074529,1.61227694 9.18846836,1 8.43335475,1 L7.56664525,1 C6.81153164,1 6.19925471,1.61227694 6.19925471,2.36764111 L6.19925471,3.41776528 L6.70018632,3.41776528 L6.5636415,2.93580263 C6.16845012,3.04776428 5.79176335,3.2028215 5.44033846,3.39861141 L5.6841392,3.83621132 L6.03835134,3.48199918 L5.24731293,2.69096076 C4.71129531,2.15533781 3.84272672,2.15533781 3.30710377,2.69096076 L2.69103281,3.30678117 C2.15531607,3.84249789 2.15531607,4.71141767 2.69096076,5.24706236 L3.48199918,6.03810078 L3.83621132,5.68388863 L3.3985298,5.44023443 C3.20273781,5.79193998 3.0479464,6.16838825 2.93600307,6.56406913 L3.41801585,6.70043689 L3.41801585,6.19950527 L2.36739055,6.19950527 C1.61239923,6.19950527 1,6.81165988 1,7.56664525 L1,8.43310418 C1,9.18828494 1.61234403,9.80099586 2.36739055,9.80099586 L3.41801585,9.80099586 L3.41801585,9.30006424 L2.93614677,9.43693893 C3.04576897,9.82286527 3.19245324,10.1866589 3.37614546,10.522608 L3.81566487,10.2822849 L3.46151034,9.92801515 L2.69101837,10.6982565 C2.15540298,11.2346611 2.15540298,12.1026775 2.69070003,12.6387635 L3.30717581,13.2549889 C3.84272672,13.7905398 4.71129531,13.7905398 5.24718244,13.2550473 L6.00458346,12.4973958 L5.65031272,12.1432422 L5.40264192,12.5786635 C5.76692911,12.7858727 6.15627133,12.9487366 6.56386255,13.0640094 L6.70018632,12.5819842 L6.19925471,12.5819842 L6.19925471,13.6326095 C6.19925471,14.3877842 6.81159278,15 7.56664525,15 L8.43335475,15 C9.18840722,15 9.80074529,14.3877842 9.80074529,13.6326095 L9.80074529,12.5819842 L9.29981368,12.5819842 L9.4363585,13.0639468 C9.83173064,12.9519339 10.208643,12.7968412 10.5599121,12.601138 L10.3161114,12.1635381 L9.9617788,12.5176298 L10.6984443,13.2547964 C11.2345823,13.7905398 12.1031509,13.7905398 12.6387739,13.2549169 L13.2546663,12.6390244 C13.7905181,12.1027781 13.7905181,11.2345605 13.2547967,10.6984445 L12.5180008,9.96164866 L12.1637887,10.3158608 L12.6013886,10.5596615 C12.7970544,10.2084593 12.9519119,9.83205916 13.0639468,9.43660906 L12.5819842,9.30006424 L12.5819842,9.80099586 L13.6326095,9.80099586 C14.3878424,9.80099586 15,9.18834915 15,8.43310418 L15,7.56664525 C15,6.81159578 14.3877872,6.19950527 13.6326095,6.19950527 L13.6326095,6.19950527 Z M13.6343591,7.20112042 C13.8363306,7.20112042 14,7.36475711 14,7.56651064 L14,8.43323872 C14,8.63541174 13.8361618,8.79938086 13.6343591,8.79938086 L12.5834075,8.79938086 C12.3592686,8.79938086 12.1623913,8.94822955 12.1012951,9.16388085 C12.0102258,9.48532832 11.8849615,9.78979875 11.7273463,10.0727037 C11.6183514,10.2683395 11.6524039,10.5125464 11.8107599,10.6709024 L12.5476542,11.4077967 C12.692386,11.552635 12.692386,11.7869828 12.5475239,11.9319516 L11.9315705,12.5479049 C11.7871111,12.6923643 11.5526132,12.6923643 11.4079168,12.5477744 L10.6712735,11.8106298 C10.5129267,11.6521753 10.2686453,11.61807 10.0729544,11.7270956 C9.78996551,11.8847576 9.48498219,12.0102529 9.16363021,12.1012951 C8.9479789,12.1623913 8.79913022,12.3592686 8.79913022,12.5834075 L8.79913022,13.6343591 C8.79913022,13.836238 8.63533552,14 8.43348936,14 L7.56651064,14 C7.36466448,14 7.20086978,13.836238 7.20086978,13.6343591 L7.20086978,12.5834075 C7.20086978,12.3591834 7.05190999,12.162253 6.83614868,12.1012325 C6.50610545,12.0078915 6.1914458,11.8762677 5.89733056,11.7089728 C5.70120915,11.5974175 5.45471905,11.6306959 5.29520204,11.7902657 L4.53775489,12.5479635 C4.39324763,12.6923643 4.1587497,12.6923643 4.01429033,12.5479049 L3.39788387,11.9317491 C3.25343138,11.7870834 3.25343138,11.5525344 3.39821675,11.4075357 L4.16862961,10.6373736 C4.32599143,10.480063 4.36076925,10.2378247 4.25402101,10.0425961 C4.10703927,9.77378578 3.98829782,9.47929351 3.89861128,9.16355089 C3.83740228,8.9480638 3.64060419,8.79938086 3.41659252,8.79938086 L2.36564086,8.79938086 C2.16397989,8.79938086 2,8.63530273 2,8.43323872 L2,7.56651064 C2,7.36486606 2.16381106,7.20112042 2.36564086,7.20112042 L3.41659252,7.20112042 C3.64079964,7.20112042 3.8377195,7.05218275 3.89875503,6.83644332 C3.98974307,6.51483214 4.11494998,6.21033252 4.27273538,5.92689906 C4.38163449,5.73128115 4.34755208,5.48715899 4.18924008,5.32884699 L3.39795594,4.53756285 C3.25351832,4.39312523 3.25351832,4.15847731 3.39795594,4.01403969 L4.01421827,3.39802799 C4.1587497,3.25349657 4.39324763,3.25349657 4.53794402,3.39808642 L5.32909763,4.18924008 C5.48745363,4.34759607 5.7316605,4.38164862 5.92729628,4.27265375 C6.21048026,4.11488301 6.51523938,3.98943368 6.83636979,3.89845424 C7.0520211,3.83735808 7.20086978,3.64048073 7.20086978,3.41634187 L7.20086978,2.3658915 C7.20086978,2.16377835 7.36464813,2 7.56651064,2 L8.43348936,2 C8.63535187,2 8.79913022,2.16377835 8.79913022,2.3658915 L8.79913022,3.41634187 C8.79913022,3.64042459 8.94790573,3.83726696 9.16348456,3.89841295 C9.47877587,3.98784103 9.77301299,4.10664812 10.0423209,4.25412103 C10.2375845,4.36104731 10.4799808,4.32632426 10.6373736,4.16888028 L11.4081049,3.39789833 C11.5526132,3.25349657 11.7871111,3.25349657 11.9315705,3.39795594 L12.5476542,4.01403969 C12.692299,4.15857798 12.692299,4.39302456 12.5477848,4.53743237 L11.7903405,5.29537792 C11.6309152,5.45490878 11.5977138,5.70128943 11.7092234,5.89733056 C11.8759509,6.19044831 12.0073679,6.5050729 12.1012938,6.83661578 C12.1623884,7.0522694 12.3592668,7.20112042 12.5834075,7.20112042 L13.6343591,7.20112042 L13.6343591,7.20112042 Z" id="Stroke-1" fill="#FFFFFF"></path>
                        <path d="M10,8 C10,9.10452418 9.10457791,10 8.00012,10 C6.89542209,10 6,9.10452418 6,8 C6,6.89547582 6.89542209,6 8.00012,6 C9.10457791,6 10,6.89547582 10,8 L10,8 Z" id="Stroke-3" stroke="#FFFFFF" stroke-width="0.5" stroke-linecap="round" stroke-linejoin="round"></path>
                    </g>
                </g>
            </g>
        </g>
    </g>
</svg>