<?xml version="1.0" encoding="UTF-8" standalone="no"?>
<svg width="16px" height="16px" viewBox="0 0 16 16" version="1.1" xmlns="http://www.w3.org/2000/svg" xmlns:xlink="http://www.w3.org/1999/xlink">
    <!-- Generator: sketchtool 3.8.3 (29802) - http://www.bohemiancoding.com/sketch -->
    <title>B8D07184-DF28-45AC-8D48-11A71394E5CB</title>
    <desc>Created with sketchtool.</desc>
    <defs></defs>
    <g id="连锁管理" stroke="none" stroke-width="1" fill="none" fill-rule="evenodd">
        <g id="连锁管理－员工设置" transform="translate(-37.000000, -429.000000)" fill="#FFFFFF">
            <g id="Group-9" transform="translate(36.000000, 212.000000)">
                <g id="Page-1" transform="translate(0.000000, 217.000000)">
                    <g id="Group-3" transform="translate(3.000000, 3.000000)">
                        <path d="M9,7.99457635 C9,8.54972226 8.592,9 8.02785714,9 C7.46371429,9 7,8.54972226 7,7.99457635 L7,1 L7.42857143,1 L7.42857143,7.67197562 C7.42857143,7.85706795 7.82571429,8.00689836 8.01371429,8.00689836 C8.20171429,8.00689836 8.57142857,7.85706795 8.57142857,7.67197562 L8.57142857,1.78651133 L9,1.78651133 L9,7.99457635 Z M7,10 L1.81417391,10 C1.47073913,10 1,9.55985714 1,9.15657143 L1,1 L7,1 L7,10 Z M9.28883117,1.39240506 L8.83116883,1.39240506 L8.83116883,0.835443038 L7.4025974,0.835443038 L7.4025974,0 L0,0 L0,8.83522785 C0,10.0154304 0.831298701,11 1.85792208,11 L7.92207792,11 L8.01961039,11 C9.04623377,11 10,10.0154304 10,8.83522785 L10,1.39240506 L9.28883117,1.39240506 Z" id="Fill-1"></path>
                        <polygon id="Fill-4" points="3.66666667 6 4.33333333 6 4.33333333 5.33333333 5 5.33333333 5 4.66666667 4.33333333 4.66666667 4.33333333 4 3.66666667 4 3.66666667 4.66666667 3 4.66666667 3 5.33333333 3.66666667 5.33333333"></polygon>
                    </g>
                </g>
            </g>
        </g>
    </g>
</svg>