<?xml version="1.0" encoding="UTF-8" standalone="no"?>
<svg width="16px" height="16px" viewBox="0 0 16 16" version="1.1" xmlns="http://www.w3.org/2000/svg" xmlns:xlink="http://www.w3.org/1999/xlink">
    <!-- Generator: sketchtool 3.8.3 (29802) - http://www.bohemiancoding.com/sketch -->
    <title>A52671D4-CD9C-488E-8556-97ABF95DAE28</title>
    <desc>Created with sketchtool.</desc>
    <defs>
        <polygon id="path-1" points="7 0 4.6620917e-16 0 0 6 7 6 7 1.88025669e-15"></polygon>
        <path d="M4.66480639,4 C4.66317942,3.96238149 4.66201578,3.92440406 4.66132374,3.88606468 C4.62929934,2.11929695 5.22679045,1.64877136 4.79222826,1.94940456 C4.57405406,2.10049854 4.78367992,1.61060918 4.91381891,1.12071982 C5.0430648,0.634363998 5.09397211,0.148008175 4.57022644,0.288784229 C3.51890748,0.571467066 2.94221309,0.571467066 1.66634056,0.288784229 L0.390468029,0.00610139067 L0,0 L4.53280979e-16,4 L4.66480639,4 L4.66480639,4 Z" id="path-3"></path>
    </defs>
    <g id="连锁管理" stroke="none" stroke-width="1" fill="none" fill-rule="evenodd">
        <g id="连锁管理－员工设置" transform="translate(-37.000000, -392.000000)">
            <g id="Group-9" transform="translate(36.000000, 212.000000)">
                <g id="Page-1" transform="translate(1.000000, 180.000000)">
                    <g id="Group-4" transform="translate(2.000000, 3.000000)">
                        <g id="Group-3">
                            <mask id="mask-2" fill="white">
                                <use xlink:href="#path-1"></use>
                            </mask>
                            <g id="Clip-2"></g>
                            <path d="M3.49957434,5 C1.88244594,5 1,4.53273649 1,4.29220149 C1,4.23870133 1.00741858,4.19102578 1.11626493,4.10462733 L1.23192178,4.0011865 C1.78977452,4.23169022 2.58003551,4.36889224 3.49908788,4.36846079 C4.41911318,4.36846079 5.21059032,4.23093517 5.76795661,4 L5.8938292,4.11282494 C5.96716367,4.17829792 6,4.25035056 6,4.29220149 C6,4.53273649 5.11718921,5 3.49957434,5 L3.49957434,5 Z M1.10048173,3.05748186 L1.16775339,3.00575971 C1.74461097,3.25273586 2.55941317,3.39926276 3.50547419,3.39960834 C4.45932071,3.39960834 5.27898886,3.25031678 5.85621138,3 C5.86886283,3.01820067 5.87895966,3.03801405 5.89550387,3.05298929 C5.96764148,3.12164497 6,3.19859463 6,3.2440963 C6,3.50109434 5.11731789,4 3.5002433,4 C1.88268211,4 1,3.50109434 1,3.2440963 C1,3.18615367 1.00742056,3.13523788 1.10048173,3.05748186 L1.10048173,3.05748186 Z M6.51682508,3.71500397 C6.51590649,3.7140778 6.51406932,3.71354856 6.51315074,3.71262239 C6.74450256,3.49775073 6.87415406,3.25019847 6.87415406,2.98028579 C6.87415406,2.76118021 6.78557636,2.55305636 6.60172844,2.34585869 C6.85761956,2.12291612 7,1.8629267 7,1.57925377 C7,0.663932257 5.52803554,0 3.49980316,0 C1.47209568,0 0,0.663932257 0,1.57925377 C0,1.86014819 0.139493467,2.11630061 0.389873086,2.33778777 C0.209830718,2.53638529 0.113641902,2.75165388 0.113641902,2.98028579 C0.113641902,3.24980153 0.242768498,3.49682456 0.473201732,3.71116698 L0.445906679,3.73829055 C0.2267589,3.95408838 0.115479069,4.19118815 0.115479069,4.44310664 C0.115479069,5.34506483 1.53665898,6 3.49507902,6 C5.45402396,6 6.87559755,5.34506483 6.87559755,4.44310664 C6.87559755,4.19780365 6.76956677,3.96692247 6.57482706,3.77057423 L6.51682508,3.71500397 Z" id="Fill-1" fill="#FFFFFF" mask="url(#mask-2)"></path>
                        </g>
                        <g id="Group-6" transform="translate(0.000000, 5.000000)">
                            <mask id="mask-4" fill="white">
                                <use xlink:href="#path-3"></use>
                            </mask>
                            <g id="Clip-5"></g>
                            <path d="M3.49957434,3 C1.88244594,3 1,2.53273649 1,2.29220149 C1,2.23870133 1.00741858,2.19102578 1.11626493,2.10462733 L1.23192178,2.0011865 C1.78977452,2.23169022 2.58003551,2.36889224 3.49908788,2.36846079 C4.41911318,2.36846079 5.21059032,2.23093517 5.76795661,2 L5.8938292,2.11282494 C5.96716367,2.17829792 6,2.25035056 6,2.29220149 C6,2.53273649 5.11718921,3 3.49957434,3 L3.49957434,3 Z M1.10048173,1.05748186 L1.16775339,1.00575971 C1.74461097,1.25273586 2.55941317,1.39926276 3.50547419,1.39960834 C4.45932071,1.39960834 5.27898886,1.25031678 5.85621138,1 C5.86886283,1.01820067 5.87895966,1.03801405 5.89550387,1.05287409 C5.96764148,1.12164497 6,1.19859463 6,1.2440963 C6,1.50097915 5.11731789,2 3.5002433,2 C1.88268211,2 1,1.50097915 1,1.2440963 C1,1.18615367 1.00742056,1.13523788 1.10048173,1.05748186 L1.10048173,1.05748186 Z M6.51682508,1.71500397 C6.51590649,1.7140778 6.51406932,1.71354856 6.51315074,1.71262239 C6.74450256,1.49775073 6.87415406,1.25019847 6.87415406,0.98028579 C6.87415406,0.761180206 6.78557636,0.553056364 6.60172844,0.345858693 C6.85761956,0.122916115 7,-0.1370733 7,-0.420746229 C7,-1.33606774 5.52803554,-2 3.49980316,-2 C1.47209568,-2 0,-1.33606774 0,-0.420746229 C0,-0.139851813 0.139493467,0.116300609 0.389873086,0.337787775 C0.209830718,0.536385287 0.113641902,0.751653877 0.113641902,0.98028579 C0.113641902,1.24966922 0.242768498,1.49682456 0.473201732,1.71116698 L0.445906679,1.73829055 C0.2267589,1.95408838 0.115479069,2.19118815 0.115479069,2.44310664 C0.115479069,3.34506483 1.53665898,4 3.49507902,4 C5.45402396,4 6.87559755,3.34506483 6.87559755,2.44310664 C6.87559755,2.19780365 6.76956677,1.96692247 6.57482706,1.77057423 L6.51682508,1.71500397 Z" id="Fill-4" fill="#FFFFFF" mask="url(#mask-4)"></path>
                        </g>
                        <path d="M8.49957434,10 C6.88244594,10 6,9.53273649 6,9.29220149 C6,9.23870133 6.00741858,9.19102578 6.11626493,9.10462733 L6.23192178,9.0011865 C6.78977452,9.23169022 7.58003551,9.36889224 8.49908788,9.36846079 C9.41911318,9.36846079 10.2105903,9.23093517 10.7679566,9 L10.8938292,9.11282494 C10.9671637,9.17829792 11,9.25035056 11,9.29220149 C11,9.53273649 10.1171892,10 8.49957434,10 L8.49957434,10 Z M6.10048173,8.05748186 L6.16775339,8.00575971 C6.74461097,8.25273586 7.55941317,8.39926276 8.50547419,8.39960834 C9.45932071,8.39960834 10.2789889,8.25031678 10.8562114,8 C10.8688628,8.01820067 10.8789597,8.03801405 10.8955039,8.05287409 C10.9676415,8.12164497 11,8.19859463 11,8.2440963 C11,8.50097915 10.1173179,9 8.5002433,9 C6.88268211,9 6,8.50097915 6,8.2440963 C6,8.18615367 6.00742056,8.13523788 6.10048173,8.05748186 L6.10048173,8.05748186 Z M11.5168251,8.71508589 C11.5159065,8.7141597 11.5140693,8.71363045 11.5131507,8.71270426 C11.7445026,8.49782786 11.8741541,8.25027014 11.8741541,7.98035151 C11.8741541,7.7612411 11.7855764,7.55311266 11.6017284,7.34591042 C11.8576196,7.12296293 12,6.86296778 12,6.5792886 C12,5.6639469 10.5280355,5 8.49980316,5 C6.47209568,5 5,5.6639469 5,6.5792886 C5,6.86018921 5.13949347,7.11634728 5.38987309,7.33783933 C5.20983072,7.53644122 5.1136419,7.75171456 5.1136419,7.98035151 C5.1136419,8.24974089 5.2427685,8.49690167 5.47320173,8.71124881 L5.44590668,8.73837299 C5.2267589,8.95417558 5.11547907,9.19128057 5.11547907,9.44320462 C5.11547907,10.3451827 6.53665898,11 8.49507902,11 C10.454024,11 11.8755975,10.3451827 11.8755975,9.44320462 C11.8755975,9.19789622 11.7695668,8.96700995 11.5748271,8.77065738 L11.5168251,8.71508589 Z" id="Fill-7" fill="#FFFFFF"></path>
                    </g>
                </g>
            </g>
        </g>
    </g>
</svg>