<?xml version="1.0" encoding="UTF-8" standalone="no"?>
<svg width="16px" height="16px" viewBox="0 0 16 16" version="1.1" xmlns="http://www.w3.org/2000/svg" xmlns:xlink="http://www.w3.org/1999/xlink">
    <!-- Generator: sketchtool 3.8.3 (29802) - http://www.bohemiancoding.com/sketch -->
    <title>5702628C-FD12-4FB9-95F9-E796D30F2730</title>
    <desc>Created with sketchtool.</desc>
    <defs></defs>
    <g id="连锁管理" stroke="none" stroke-width="1" fill="none" fill-rule="evenodd">
        <g id="连锁管理－员工设置" transform="translate(-37.000000, -248.000000)">
            <g id="Group-9" transform="translate(36.000000, 212.000000)">
                <g id="Page-1" transform="translate(0.000000, 35.000000)">
                    <path d="M8,8 C8,8.55237755 7.55219878,9 7,9 C6.44762245,9 6,8.55237755 6,8 C6,7.44780122 6.44762245,7 7,7 C7.55219878,7 8,7.44780122 8,8" id="Fill-1" fill="#FFFFFF"></path>
                    <path d="M6,10 C6,9.44767915 6.67157131,9 7.5,9 C8.32842869,9 9,9.44767915 9,10 L6,10 Z" id="Fill-3" fill="#FFFFFF"></path>
                    <path d="M10,7 L13,7" id="Stroke-5" stroke="#FFFFFF" stroke-linecap="round" stroke-linejoin="round"></path>
                    <path d="M10,9 L13,9" id="Stroke-7" stroke="#FFFFFF" stroke-linecap="round" stroke-linejoin="round"></path>
                    <path d="M6,11 L13,11" id="Stroke-9" stroke="#FFFFFF" stroke-linecap="round" stroke-linejoin="round"></path>
                    <path d="M6.46837514,5 C6.46837514,5.00343193 6.46892039,5.00668322 6.46892039,5.00993452 L5.51908397,5.00993452 C4.68011632,5.00993452 4,5.68584331 4,6.51962068 L4,11.4903138 C4,12.3240912 4.68011632,13 5.51908397,13 L13.4810978,13 C14.3200654,13 15,12.3240912 15,11.4903138 L15,6.51962068 C15,5.68584331 14.3200654,5.00993452 13.4810978,5.00993452 L12.6764813,5.00993452 C12.6764813,5.00668322 12.6770265,5.00343193 12.6770265,5 L6.46837514,5 L6.46837514,5 Z" id="Stroke-11" stroke="#FFFFFF" stroke-linecap="round" stroke-linejoin="round"></path>
                </g>
            </g>
        </g>
    </g>
</svg>