<?xml version="1.0" encoding="UTF-8" standalone="no"?>
<svg width="16px" height="16px" viewBox="0 0 16 16" version="1.1" xmlns="http://www.w3.org/2000/svg" xmlns:xlink="http://www.w3.org/1999/xlink">
    <!-- Generator: sketchtool 3.8.3 (29802) - http://www.bohemiancoding.com/sketch -->
    <title>FC18E2BC-B336-4CB4-83F9-EAFF98683888</title>
    <desc>Created with sketchtool.</desc>
    <defs></defs>
    <g id="连锁管理" stroke="none" stroke-width="1" fill="none" fill-rule="evenodd" stroke-linecap="round" stroke-linejoin="round">
        <g id="连锁管理－员工设置" transform="translate(-37.000000, -284.000000)" stroke="#FFFFFF">
            <g id="Group-9" transform="translate(36.000000, 212.000000)">
                <g id="Page-1" transform="translate(1.000000, 72.000000)">
                    <g id="Group-10" transform="translate(3.000000, 4.000000)">
                        <path d="M0,8 C0,6.78101738 1.13415205,5.73617513 2.13165533,5.19988442 C1.3021503,4.71709069 0.795206292,3.82822626 0.795206292,2.79351101 C0.795206292,1.25068454 2.03629611,0 3.56728669,0 C5.09827726,0 6.33936708,1.25068454 6.33936708,2.79351101 C6.33936708,3.80797226 5.84400162,4.70388156 5.04114912,5.19327985 C6.02325073,5.73430384 7,6.79257537 7,8" id="Stroke-1"></path>
                        <path d="M5,0.399906435 C5.42927421,0.146070972 5.93245277,0 6.47044949,0 C8.04467956,0 9.32082126,1.25068454 9.32082126,2.79351101 C9.32082126,3.80797226 8.81146528,4.70388156 7.98593796,5.19316978 C8.99577689,5.73419376 10,6.79257537 10,8" id="Stroke-3"></path>
                    </g>
                </g>
            </g>
        </g>
    </g>
</svg>