<?xml version="1.0" encoding="UTF-8" standalone="no"?>
<svg width="132px" height="13px" viewBox="0 0 132 13" version="1.1" xmlns="http://www.w3.org/2000/svg" xmlns:xlink="http://www.w3.org/1999/xlink">
    <!-- Generator: sketchtool 3.8.3 (29802) - http://www.bohemiancoding.com/sketch -->
    <title>74DC2F13-66DA-4FE2-BA17-2284B81C8A4D</title>
    <desc>Created with sketchtool.</desc>
    <defs>
        <polygon id="path-1" points="0.283115061 11.9439833 11.9348973 11.9439833 11.9348973 0.0162096916 0.283115061 0.0162096916"></polygon>
        <polygon id="path-3" points="11.6974254 11.9314421 11.6974254 0.0535772966 0.203489927 0.0535772966 0.203489927 11.9314421 11.6974254 11.9314421"></polygon>
    </defs>
    <g id="连锁管理" stroke="none" stroke-width="1" fill="none" fill-rule="evenodd">
        <g id="连锁管理－员工设置" transform="translate(-23.000000, -15.000000)">
            <g id="logo" transform="translate(23.500000, 14.737763)">
                <polygon id="Fill-1" fill="#FEFEFE" points="44.2019095 0.504206724 44.2019095 0.752044378 44.879304 0.752044378 44.8797306 2.45918085 45.1749176 2.45875428 45.1749176 0.752044378 45.8420744 0.752044378 45.8420744 0.503780153"></polygon>
                <g id="Group-30" transform="translate(0.000000, 0.410489)">
                    <path d="M46.9582823,2.04792391 L46.3474328,0.33140288 L46.3380483,0.33140288 L46.3384748,2.04792391 L46.0522458,2.04835048 L46.0518192,0.0933763552 L46.53811,0.0929497844 L47.0917989,1.72373008 L47.1011835,1.72373008 L47.6348236,0.0929497844 L48.1309255,0.0925232136 L48.131352,2.04749734 L47.8357385,2.04749734 L47.8353119,0.33140288 L47.8255008,0.33140288 C47.787536,0.477716675 47.5938728,1.04974816 47.2445113,2.04792391 L46.9582823,2.04792391 Z" id="Fill-2" fill="#FEFEFE"></path>
                    <path d="M3.00864674,0.0909022444 C1.34672678,0.0913288152 -0.000383913749,1.43886607 4.26570833e-05,3.10121261 L0.00174894041,8.93542188 C0.00132236958,7.27350192 1.34800649,5.92553809 3.01035302,5.92511152 L6.01981024,5.92425838 L6.0189571,3.09950633 C6.01853053,1.43758636 4.6705667,0.0904756736 3.00864674,0.0909022444" id="Fill-4" fill="#F5B11A"></path>
                    <path d="M8.84443433,5.92357586 L6.01968227,5.92442901 L6.02053541,8.93388623 C6.02096199,10.5958062 4.6738513,11.9433435 3.01193133,11.94377 L8.84614061,11.9424903 C10.5080606,11.9420637 11.8551713,10.5940999 11.8547447,8.93217995 C11.8543181,7.27025998 10.5063543,5.92314929 8.84443433,5.92357586" id="Fill-6" fill="#2860AC"></path>
                    <path d="M5.34343953,8.93260652 L5.34301296,6.6001172 L3.01009708,6.60054378 C1.72185317,6.60097035 0.678034338,7.64564231 0.678460909,8.93388623 C0.67888748,10.2221301 1.72313288,11.265949 3.01137679,11.265949 C4.29962071,11.2655224 5.3438661,10.2208504 5.34343953,8.93260652" id="Fill-8" fill="#47B034"></path>
                    <path d="M20.7273327,4.69970149 L17.0490124,4.70055463 L17.0485858,2.76605591 L20.7269061,2.76520276 C21.2601197,2.76477619 21.6943688,3.19859873 21.6943688,3.73223884 C21.6943688,4.26545238 21.2605462,4.69970149 20.7273327,4.69970149 M20.726053,0.0974287781 L15.7142723,0.0987084906 C14.9775844,0.0987084906 14.3803853,0.696334227 14.3803853,1.43302205 L14.3829447,10.5424422 C14.3829447,11.27913 14.9805704,11.8763292 15.7172583,11.8763292 C16.4539461,11.8759026 17.0511453,11.2787034 17.0507187,10.5420156 L17.0498655,7.36832862 L20.7281858,7.36747548 C22.7326422,7.3670489 24.3625693,5.73584204 24.3621428,3.7313857 C24.3617162,1.72692936 22.7305093,0.0970022073 20.726053,0.0974287781" id="Fill-10" fill="#FEFEFE"></path>
                    <path d="M33.0527556,4.50386282 C32.9384347,4.62628865 32.7503169,4.69667284 32.5374581,4.69667284 L28.0972823,4.69795255 C28.5938107,3.56071471 29.7289157,2.76388039 31.0470196,2.76260068 C31.6250231,2.76260068 32.2102782,2.9524247 32.6534853,3.28387024 C33.0344131,3.56839298 33.1854192,3.86571285 33.1943772,3.99624353 C33.2093071,4.21678065 33.1615312,4.38740898 33.0527556,4.50386282 M34.2509931,1.14717694 C33.3445301,0.469782458 32.2094251,0.0961064085 31.0529916,0.0944001252 L31.0487259,0.0944001252 L31.0444602,0.0944001252 L31.0410476,0.0944001252 C29.4708404,0.0969595502 27.9953318,0.709941836 26.8853945,1.82030571 C25.7733244,2.93280244 25.1611952,4.41215009 25.1616218,5.98491675 C25.1620484,7.55768341 25.7750307,9.03660449 26.8875274,10.1482481 C28.0000241,11.2603182 29.4789452,11.8724474 31.0517119,11.8720208 L31.4010734,11.8720208 C32.1377612,11.8720208 32.7349604,11.2743951 32.7349604,10.5377072 C32.7345338,9.80101942 32.1373346,9.20424682 31.4006468,9.20424682 L31.0512853,9.20424682 C29.7694399,9.20467339 28.6595026,8.45220244 28.1412191,7.36572653 L32.5378846,7.36444682 C33.4870047,7.36402025 34.3849363,6.98565192 35.0017578,6.32532027 C35.6172995,5.66669491 35.9205913,4.77601501 35.8561791,3.81708378 C35.7896341,2.83298487 35.2048055,1.8599768 34.2509931,1.14717694" id="Fill-12" fill="#FEFEFE"></path>
                    <path d="M42.8675959,9.20117551 L40.5423583,9.20160208 C39.7122515,9.20202865 39.3334566,8.65132571 39.3334566,8.13944071 L39.33303,6.21688597 L42.8667428,6.21603283 C43.6034306,6.21603283 44.2006298,5.61840709 44.2002032,4.88171926 C44.2002032,4.14503144 43.6025775,3.54825884 42.8663162,3.54825884 L39.3321769,3.54911198 L39.3317503,1.42606895 C39.3317503,0.689381122 38.7341246,0.0926085277 37.9974368,0.0926085277 C37.2607489,0.0930350986 36.6639763,0.690234264 36.6639763,1.42692209 L36.6656826,8.13986728 C36.6661092,9.18752525 37.083722,10.1485893 37.8417384,10.8460326 C38.5592305,11.5063643 39.5185883,11.8698026 40.5432115,11.8693761 L42.8684491,11.8689495 C43.6051369,11.8689495 44.2019095,11.2713238 44.2019095,10.5346359 C44.2014829,9.79794811 43.6042838,9.20117551 42.8675959,9.20117551" id="Fill-14" fill="#FEFEFE"></path>
                    <path d="M53.4792279,2.25331777 L54.6544306,2.25331777 L53.6993385,5.19452365 C53.5611295,5.65948586 53.9757564,6.14961575 54.4407186,6.14961575 L57.1682125,6.14961575 L57.1682125,7.98472347 L53.6046397,7.98472347 C53.4071374,7.98472347 53.2467468,8.1451141 53.2467468,8.34304297 L53.2467468,8.34304297 C53.2467468,8.54097184 53.4071374,8.70136247 53.6046397,8.70136247 L57.1682125,8.70136247 L57.1682125,10.2724228 C57.1682125,10.5360436 57.3819245,10.7501822 57.6459718,10.7501822 L57.6459718,10.7501822 C57.9095926,10.7501822 58.1233046,10.5360436 58.1233046,10.2724228 L58.1233046,8.70136247 L61.4100328,8.70136247 C61.6079617,8.70136247 61.7683523,8.54097184 61.7683523,8.34304297 L61.7683523,8.34304297 C61.7683523,8.1451141 61.6079617,7.98472347 61.4100328,7.98472347 L58.1233046,7.98472347 L58.1233046,6.14961575 L61.0205737,6.14961575 C61.2185025,6.14961575 61.3788932,5.98922512 61.3788932,5.79129625 L61.3788932,5.79129625 C61.3788932,5.59379395 61.2185025,5.43340332 61.0205737,5.43340332 L58.1233046,5.43340332 L58.1233046,3.82437814 C58.1233046,3.56075737 57.9095926,3.34661881 57.6459718,3.34661881 L57.6459718,3.34661881 C57.3819245,3.34661881 57.1682125,3.56075737 57.1682125,3.82437814 L57.1682125,5.43340332 L55.0063515,5.43340332 C54.7926395,5.43340332 54.6919688,5.28239725 54.7551013,5.11902062 L55.6474875,2.25331777 L61.4100328,2.25331777 C61.6079617,2.25331777 61.7683523,2.09292713 61.7683523,1.89499827 L61.7683523,1.89499827 C61.7683523,1.69749597 61.6079617,1.53710534 61.4100328,1.53710534 L55.87357,1.53710534 L56.1559599,0.65197086 C56.2527915,0.349958711 56.0271355,0.0411214282 55.7101934,0.0411214282 L55.7101934,0.0411214282 C55.5075722,0.0411214282 55.3279859,0.171225532 55.26528,0.363608978 L54.8805131,1.53710534 L53.4792279,1.53710534 C53.2812991,1.53710534 53.1209084,1.69749597 53.1209084,1.89499827 L53.1209084,1.89499827 C53.1209084,2.09292713 53.2812991,2.25331777 53.4792279,2.25331777 L53.4792279,2.25331777 Z M50.9471035,1.94490705 L50.6130985,0.624670327 C50.5401549,0.335028732 50.7589857,0.0539185532 51.0575853,0.0539185532 L51.0652636,0.0539185532 C51.2759896,0.0539185532 51.4598416,0.197672924 51.510177,0.402426923 L51.8365036,1.72266365 C51.9081675,2.0114521 51.6893367,2.290856 51.3915903,2.290856 L51.3915903,2.290856 C51.1817174,2.290856 50.998292,2.14838134 50.9471035,1.94490705 L50.9471035,1.94490705 Z M52.190984,9.19149235 C52.190984,9.34207186 52.1781869,9.50544849 52.1530192,9.66882512 C52.4298637,10.4861348 53.2719145,11.2151444 54.5162216,11.2151444 L61.4352005,11.2151444 C61.6331294,11.2151444 61.79352,11.375535 61.79352,11.5730373 L61.79352,11.5730373 C61.79352,11.7709662 61.6331294,11.9313568 61.4352005,11.9313568 L54.3652155,11.9313568 C52.9826995,11.9313568 52.2536899,11.3405562 51.8638042,10.800091 C51.7183435,11.164809 51.5293726,11.5035063 51.2900664,11.773099 C51.2009131,11.8737697 51.0733684,11.9313568 50.9389986,11.9313568 C50.5661757,11.9313568 50.3413729,11.5111845 50.555938,11.2061864 C50.9411315,10.6576163 51.2354653,9.98747353 51.2354653,8.96498324 L51.2354653,4.21426388 C51.2354653,3.96258709 51.0221799,3.7488751 50.7581326,3.7488751 L50.2616041,3.7488751 C50.0636753,3.7488751 49.9032846,3.58848447 49.9032846,3.39098218 L49.9032846,3.39098218 C49.9032846,3.19305331 50.0636753,3.03266268 50.2616041,3.03266268 L51.3613037,3.03266268 C51.8138954,3.03266268 52.190984,3.40975129 52.190984,3.8747135 L52.190984,9.19149235 Z" id="Fill-16" fill="#FEFEFE"></path>
                    <g id="Group-20" transform="translate(63.559054, 0.000000)">
                        <mask id="mask-2" fill="white">
                            <use xlink:href="#path-1"></use>
                        </mask>
                        <g id="Clip-19"></g>
                        <path d="M10.3740747,2.30877197 L10.776331,0.69292166 C10.8292258,0.479636244 11.0203295,0.330336453 11.2400135,0.330336453 L11.2476917,0.330336453 C11.5586619,0.330336453 11.7864507,0.622110902 11.7118008,0.923696481 L11.3091179,2.54125308 C11.2557966,2.75624478 11.0629866,2.90682428 10.8415963,2.90682428 C10.5284933,2.90682428 10.2985716,2.61291698 10.3740747,2.30877197 L10.3740747,2.30877197 Z M5.7112289,2.53912022 L5.31665088,0.921563626 C5.2432807,0.620404619 5.47106953,0.330336453 5.78118652,0.330336453 C5.99959079,0.330336453 6.19069452,0.478783102 6.24444244,0.690788806 L6.65437701,2.30663912 C6.73158634,2.61121069 6.50123809,2.90682428 6.18728195,2.90682428 L6.17960368,2.90682428 C5.95736027,2.90682428 5.76412369,2.75496506 5.7112289,2.53912022 L5.7112289,2.53912022 Z M5.61226447,9.00294805 C5.34181856,9.00294805 5.12213458,8.78326407 5.12213458,8.51281816 L5.12213458,4.23943156 C5.12213458,3.78683991 5.51202033,3.40975129 5.98935309,3.40975129 L8.03817279,3.40975129 L8.03817279,0.494139652 C8.03817279,0.230092307 8.25231135,0.0159537491 8.5163587,0.0159537491 L8.55347036,0.0159537491 C8.81709113,0.0159537491 9.03122969,0.230092307 9.03122969,0.494139652 L9.03122969,3.40975129 L11.0672523,3.40975129 C11.5450116,3.40975129 11.9348973,3.78683991 11.9348973,4.23943156 L11.9348973,8.51281816 C11.9348973,8.78326407 11.7152134,9.00294805 11.4443409,9.00294805 C11.173895,9.00294805 10.954211,8.78326407 10.954211,8.51281816 L10.954211,4.60372305 C10.954211,4.33967571 10.7281285,4.12596372 10.451284,4.12596372 L6.59295081,4.12596372 C6.32335805,4.12596372 6.10282093,4.34650084 6.10282093,4.61609361 L6.10282093,8.51281816 C6.10282093,8.78326407 5.88313695,9.00294805 5.61226447,9.00294805 L5.61226447,9.00294805 Z M10.9495187,11.8102107 C10.1586564,11.164809 9.018006,10.1790038 8.51593213,9.09082164 C8.01428483,10.1777241 6.87491413,11.1626762 6.09599579,11.8076513 C6.01750676,11.8729166 5.91811576,11.9061891 5.81616533,11.9061891 C5.41902788,11.9061891 5.22024588,11.4220312 5.5064749,11.1468931 C6.60958708,10.0868645 8.09192072,9.05072398 8.02580224,6.94175778 L8.02580224,5.70342266 C8.02580224,5.42913761 8.24804564,5.20689421 8.52233069,5.20689421 C8.79661573,5.20689421 9.01885914,5.42913761 9.01885914,5.70342266 L9.01885914,6.94175778 C8.99113203,9.05072398 10.4372072,10.0898505 11.5352005,11.1503056 C11.8197232,11.4250172 11.6209412,11.9061891 11.2263632,11.9061891 C11.1256925,11.9061891 11.0275812,11.8737697 10.9495187,11.8102107 L10.9495187,11.8102107 Z M4.0791689,11.5858344 C4.0791689,11.7837633 3.91877827,11.9441539 3.7208494,11.9441539 L2.55801731,11.9441539 C2.0930551,11.9441539 1.71596649,11.5670653 1.71596649,11.1144737 L1.71596649,8.43731512 L0.641434561,8.43731512 C0.443505694,8.43731512 0.283115061,8.27692449 0.283115061,8.07899562 L0.283115061,8.07899562 C0.283115061,7.88106676 0.443505694,7.72067612 0.641434561,7.72067612 L1.71596649,7.72067612 L1.71596649,5.4206062 L0.641434561,5.4206062 C0.443505694,5.4206062 0.283115061,5.26021556 0.283115061,5.0622867 L0.283115061,5.0622867 C0.283115061,4.8647844 0.443505694,4.70439377 0.641434561,4.70439377 L3.70847885,4.70439377 C3.90598114,4.70439377 4.06637177,4.8647844 4.06637177,5.0622867 L4.06637177,5.06271327 C4.06637177,5.26021556 3.90598114,5.4206062 3.70847885,5.4206062 L2.67148515,5.4206062 L2.67148515,7.72067612 L3.70847885,7.72067612 C3.90598114,7.72067612 4.06637177,7.88106676 4.06637177,8.07899562 L4.06637177,8.07899562 C4.06637177,8.27692449 3.90598114,8.43731512 3.70847885,8.43731512 L2.67148515,8.43731512 L2.67148515,10.7501822 C2.67148515,11.013803 2.88519714,11.2275149 3.14881791,11.2275149 L3.7208494,11.2275149 C3.91877827,11.2275149 4.0791689,11.3879056 4.0791689,11.5858344 L4.0791689,11.5858344 Z M0.363736949,3.73223884 C0.649539407,2.68799344 0.855146548,1.6121818 0.980984943,0.494139652 C1.00785891,0.251420849 1.21048005,0.0662891074 1.45447857,0.0662891074 L1.45447857,0.0662891074 C1.74369359,0.0662891074 1.965937,0.321805036 1.92797219,0.608887206 C1.87422427,1.01199664 1.81066521,1.40956066 1.74113417,1.80072611 L3.70847885,1.80072611 C3.90598114,1.80072611 4.06637177,1.96111674 4.06637177,2.15904561 L4.06637177,2.15904561 C4.06637177,2.35697448 3.90598114,2.51736511 3.70847885,2.51736511 L1.60292522,2.51736511 C1.50182793,3.01346699 1.38409438,3.50146402 1.25697627,3.97495764 C1.20280178,4.17629908 1.01852318,4.31450803 0.80993004,4.31450803 C0.505358465,4.31450803 0.283541632,4.02571957 0.363736949,3.73223884 L0.363736949,3.73223884 Z" id="Fill-18" fill="#FEFEFE" mask="url(#mask-2)"></path>
                    </g>
                    <path d="M83.757055,2.81668986 C84.1627238,1.96610762 84.4429809,1.2234478 84.6972171,0.38566269 C84.756937,0.188160394 84.9399359,0.053790582 85.1459696,0.053790582 C85.461632,0.053790582 85.687288,0.359215298 85.5960018,0.660800877 C85.5601699,0.779387568 85.5239114,0.894988264 85.4859466,1.00888268 L89.0870575,1.00888268 C89.2849864,1.00888268 89.445377,1.16927331 89.445377,1.36720217 L89.445377,1.36720217 C89.445377,1.56513104 89.2849864,1.72552167 89.0870575,1.72552167 L87.3590191,1.72552167 L87.9882111,2.78171106 C88.1596925,3.06964637 87.9523791,3.434791 87.6170944,3.434791 C87.4648087,3.434791 87.3236137,3.35459568 87.2459778,3.22406501 L86.3535916,1.72552167 L85.2346963,1.72552167 C85.0397535,2.23484725 84.8166569,2.72540371 84.5654067,3.20529589 C84.4916099,3.34691741 84.3427367,3.434791 84.1827727,3.434791 L84.1465141,3.434791 C83.8291454,3.434791 83.6205523,3.10334546 83.757055,2.81668986 L83.757055,2.81668986 Z M79.9558823,10.9637662 C79.9558823,11.1019751 80.056553,11.2026459 80.194762,11.2026459 L87.283516,11.2026459 C87.421725,11.2026459 87.5223957,11.1019751 87.5223957,10.9637662 L87.5223957,10.3102597 C87.5223957,10.1716242 87.421725,10.07138 87.283516,10.07138 L79.9558823,10.07138 L79.9558823,10.9637662 Z M79.9558823,7.87155423 L86.5920447,7.87155423 C86.7178831,7.87155423 86.8309244,7.77131008 86.8309244,7.63310113 L86.8309244,7.10500644 C86.8309244,6.97916805 86.7178831,6.86612678 86.5920447,6.86612678 L80.194762,6.86612678 C80.056553,6.86612678 79.9558823,6.97916805 79.9558823,7.10500644 L79.9558823,7.87155423 Z M79.7170026,11.9188583 C79.3147463,11.9188583 79.0003636,11.6044756 79.0003636,11.2026459 L79.0003636,6.86612678 C79.0003636,6.47666761 79.3147463,6.14991435 79.7170026,6.14991435 L87.1073423,6.14991435 C87.497228,6.14991435 87.8239813,6.47666761 87.8239813,6.86612678 L87.8239813,7.87155423 C87.8239813,8.26143997 87.497228,8.58819323 87.1073423,8.58819323 L79.9558823,8.58819323 L79.9558823,9.35474101 L87.7612754,9.35474101 C88.1507345,9.35474101 88.4651173,9.68149427 88.4651173,10.07138 L88.4651173,11.2026459 C88.4651173,11.6044756 88.1507345,11.9188583 87.7612754,11.9188583 L79.7170026,11.9188583 Z M83.9780187,4.17659768 L83.9780187,4.40268022 L88.4019848,4.40268022 C88.866947,4.40268022 89.2440356,4.77976883 89.2440356,5.23236049 L89.2440356,6.02407595 C89.2440356,6.28769673 89.0303236,6.50183528 88.7667028,6.50183528 C88.5026555,6.50183528 88.2889435,6.28769673 88.2889435,6.02407595 L88.2889435,5.59665198 C88.2889435,5.3330312 88.0752315,5.11889265 87.8111842,5.11889265 L79.1513697,5.11889265 C78.8877489,5.11889265 78.6736104,5.3330312 78.6736104,5.59665198 L78.6736104,6.02407595 C78.6736104,6.28769673 78.4598984,6.50183528 78.1962776,6.50183528 C77.9322303,6.50183528 77.7185183,6.28769673 77.7185183,6.02407595 L77.7185183,5.23236049 C77.7185183,4.7759297 78.0917677,4.40268022 78.5481985,4.40268022 L83.0225,4.40268022 L83.0225,4.17659768 C83.0225,3.91255033 83.236212,3.69883835 83.5002593,3.69883835 L83.5002593,3.69883835 C83.7638801,3.69883835 83.9780187,3.91255033 83.9780187,4.17659768 L83.9780187,4.17659768 Z M81.2756924,3.22406501 L80.3833063,1.72552167 L79.3778788,1.72552167 C79.1705654,2.25958836 78.9444828,2.75611681 78.6829949,3.25563125 C78.6087716,3.39725277 78.4607515,3.48512636 78.3007875,3.48512636 L78.2559975,3.48512636 C77.9373491,3.48512636 77.728756,3.15069483 77.8678181,2.86403923 C78.2931092,1.98999559 78.5836039,1.24520292 78.8408261,0.387368973 C78.900546,0.189013536 79.0843981,0.053790582 79.2912849,0.053790582 L79.2912849,0.053790582 C79.6107865,0.053790582 79.8381487,0.366040431 79.7400374,0.670185435 C79.7029258,0.78535956 79.6662407,0.897974259 79.629129,1.00888268 L83.2801488,1.00888268 C83.4780777,1.00888268 83.6384683,1.16927331 83.6384683,1.36720217 L83.6384683,1.36720217 C83.6384683,1.56513104 83.4780777,1.72552167 83.2801488,1.72552167 L81.3887337,1.72552167 L82.0179257,2.78171106 C82.1894072,3.06964637 81.9816672,3.434791 81.6468091,3.434791 L81.6468091,3.434791 C81.4945233,3.434791 81.3533283,3.35459568 81.2756924,3.22406501 L81.2756924,3.22406501 Z" id="Fill-21" fill="#FEFEFE"></path>
                    <path d="M101.662366,5.86065667 C101.85091,5.86065667 102.014287,5.70965059 102.014287,5.50873573 L102.014287,3.83700464 L100.015802,3.83700464 L100.015802,5.86065667 L101.662366,5.86065667 Z M102.014287,1.43626399 C102.014287,1.23534913 101.85091,1.0719725 101.662366,1.0719725 L100.015802,1.0719725 L100.015802,3.12079221 L102.014287,3.12079221 L102.014287,1.43626399 Z M99.0607102,5.86065667 L99.0607102,3.83700464 L97.0622258,3.83700464 L97.0622258,5.50873573 C97.0622258,5.70965059 97.2128053,5.86065667 97.4265173,5.86065667 L99.0607102,5.86065667 Z M97.0622258,3.12079221 L99.0607102,3.12079221 L99.0607102,1.0719725 L97.4265173,1.0719725 C97.2128053,1.0719725 97.0622258,1.23534913 97.0622258,1.43626399 L97.0622258,3.12079221 Z M96.1634411,11.1522678 L99.0607102,11.1522678 L99.0607102,9.09065101 L96.5529002,9.09065101 C96.3553979,9.09065101 96.1950073,8.93068695 96.1950073,8.73275808 L96.1950073,8.73275808 C96.1950073,8.53482922 96.3553979,8.37443858 96.5529002,8.37443858 L99.0607102,8.37443858 L99.0607102,6.57729567 L96.9491845,6.57729567 C96.4837958,6.57729567 96.1067071,6.20020705 96.1067071,5.73481827 L96.1067071,1.1978109 C96.1067071,0.745219244 96.4837958,0.355333503 96.9491845,0.355333503 L102.140125,0.355333503 C102.596129,0.355333503 102.969379,0.728582982 102.969379,1.18501377 L102.969379,5.7476154 C102.969379,6.2125776 102.592717,6.57729567 102.140125,6.57729567 L100.015802,6.57729567 L100.015802,8.37443858 L102.535983,8.37443858 C102.733912,8.37443858 102.894302,8.53482922 102.894302,8.73275808 L102.894302,8.73275808 C102.894302,8.93068695 102.733912,9.09065101 102.535983,9.09065101 L100.015802,9.09065101 L100.015802,11.1522678 L102.913071,11.1522678 C103.111,11.1522678 103.271391,11.3126585 103.271391,11.5105873 L103.271391,11.5105873 C103.271391,11.7080896 103.111,11.8684803 102.913071,11.8684803 L96.1634411,11.8684803 C95.9655122,11.8684803 95.8051216,11.7080896 95.8051216,11.5105873 L95.8051216,11.5105873 C95.8051216,11.3126585 95.9655122,11.1522678 96.1634411,11.1522678 L96.1634411,11.1522678 Z M91.3811555,10.7457458 L91.3811555,10.7457458 C91.3811555,10.5572015 91.5274693,10.4015032 91.7151604,10.3895592 L92.7760421,10.3225876 L92.7760421,6.20020705 L91.9890189,6.20020705 C91.7919432,6.20020705 91.6324057,6.04024299 91.6324057,5.84316726 L91.6324057,5.84018127 C91.6324057,5.64353211 91.7919432,5.48356805 91.9890189,5.48356805 L92.7760421,5.48356805 L92.7760421,1.67514366 L91.8132717,1.67514366 C91.616196,1.67514366 91.4566585,1.51560617 91.4566585,1.31853044 L91.4566585,1.31554445 C91.4566585,1.11846872 91.616196,0.958931231 91.8132717,0.958931231 L94.7118205,0.958931231 C94.9063368,0.958931231 95.0637415,1.11633587 95.0637415,1.31085217 L95.0637415,1.32322272 C95.0637415,1.51773902 94.9063368,1.67514366 94.7118205,1.67514366 L93.7315607,1.67514366 L93.7315607,5.48356805 L94.5356468,5.48356805 C94.7301631,5.48356805 94.8879943,5.64139926 94.8879943,5.83548899 L94.8879943,5.84785954 C94.8879943,6.04237584 94.7301631,6.20020705 94.5356468,6.20020705 L93.7315607,6.20020705 L93.7315607,10.2598817 L94.7651419,10.1950429 C94.967763,10.1826723 95.1392445,10.3434895 95.1392445,10.5465373 L95.1392445,10.5465373 C95.1392445,10.731669 94.9954901,10.8852345 94.810785,10.8976051 L91.7616566,11.1015059 C91.5556229,11.1151562 91.3811555,10.9522061 91.3811555,10.7457458 L91.3811555,10.7457458 Z" id="Fill-23" fill="#FEFEFE"></path>
                    <path d="M111.629662,3.0954539 L111.629662,7.41917586 L115.111334,7.41917586 C115.375381,7.41917586 115.589093,7.20546387 115.589093,6.94141653 L115.589093,3.57321323 C115.589093,3.30916589 115.375381,3.0954539 115.111334,3.0954539 L111.629662,3.0954539 Z M110.67457,7.41917586 L110.67457,3.0954539 L107.192899,3.0954539 C106.928852,3.0954539 106.71514,3.30916589 106.71514,3.57321323 L106.71514,6.94141653 C106.71514,7.20546387 106.928852,7.41917586 107.192899,7.41917586 L110.67457,7.41917586 Z M110.67457,11.4664799 L110.67457,8.13581486 L106.576931,8.13581486 C106.125619,8.13581486 105.760048,7.76981708 105.760048,7.31850514 L105.760048,3.2212923 C105.760048,2.75590352 106.124339,2.37924147 106.576931,2.37924147 L110.67457,2.37924147 L110.67457,0.544133754 C110.67457,0.280086409 110.888282,0.0663744215 111.151903,0.0663744215 C111.41595,0.0663744215 111.629662,0.280086409 111.629662,0.544133754 L111.629662,2.37924147 L115.714505,2.37924147 C116.167096,2.37924147 116.544185,2.75590352 116.544185,3.2212923 L116.544185,7.30613459 C116.544185,7.76213881 116.170935,8.13581486 115.714505,8.13581486 L111.629662,8.13581486 L111.629662,11.4664799 C111.629662,11.7301007 111.41595,11.9438127 111.151903,11.9438127 C110.888282,11.9438127 110.67457,11.7301007 110.67457,11.4664799 L110.67457,11.4664799 Z" id="Fill-25" fill="#FEFEFE"></path>
                    <g id="Group-29" transform="translate(119.013262, 0.000000)">
                        <mask id="mask-4" fill="white">
                            <use xlink:href="#path-3"></use>
                        </mask>
                        <g id="Clip-28"></g>
                        <path d="M10.8274768,11.2101108 C10.2392356,8.55385427 9.69749068,5.74872448 9.33362576,2.92525214 C9.29907352,2.65565937 9.51107922,2.41677971 9.78280484,2.41677971 C10.0080342,2.41677971 10.1987114,2.5835689 10.2298511,2.80623888 C10.6286948,5.62672522 11.0561188,8.20363962 11.6865905,11.0160211 C11.7484432,11.2915859 11.5402767,11.5543535 11.2578868,11.5543535 L11.2578868,11.5543535 C11.0514265,11.5543535 10.8722667,11.4118789 10.8274768,11.2101108 M7.24172239,8.35933797 C6.78187904,5.84427635 6.37066475,3.20167004 6.1637779,0.542427471 C6.1433025,0.278806696 6.35360192,0.0535772966 6.61807584,0.0535772966 C6.85311637,0.0535772966 7.04891238,0.234016759 7.07024092,0.468204146 C7.31295972,3.11763559 7.62222358,5.53970477 8.12387088,8.19212221 C8.17633909,8.46896668 7.9656131,8.72618889 7.68364978,8.72618889 C7.46695179,8.72618889 7.28096691,8.57262339 7.24172239,8.35933797 M8.97487969,11.9314421 L4.45621486,11.9314421 C3.99807778,11.9314421 3.62696116,11.5598989 3.62696116,11.1017619 L3.62696116,1.66260248 C3.62696116,1.3989817 3.84067315,1.18484314 4.10429392,1.18484314 C4.36834127,1.18484314 4.58205325,1.3989817 4.58205325,1.66260248 L4.58205325,10.7374704 C4.58205325,11.0010911 4.79576524,11.2152297 5.05981259,11.2152297 L8.97487969,11.2152297 C9.17280855,11.2152297 9.33319919,11.3756203 9.33319919,11.5731226 L9.33319919,11.5731226 C9.33319919,11.7710515 9.17280855,11.9314421 8.97487969,11.9314421 M0.211835075,11.0313777 C0.765097445,8.20747876 1.1225638,5.62885808 1.4224431,2.79770746 C1.44675764,2.56778578 1.64084736,2.39161203 1.87247533,2.39161203 C2.1390821,2.39161203 2.34980809,2.62153371 2.32421384,2.88686077 C2.05078193,5.71374567 1.58880572,8.53209916 1.06924245,11.2015794 C1.02914479,11.4071866 0.848705328,11.5543535 0.63968562,11.5543535 C0.364120863,11.5543535 0.158940292,11.3018236 0.211835075,11.0313777" id="Fill-27" fill="#FEFEFE" mask="url(#mask-4)"></path>
                    </g>
                </g>
            </g>
        </g>
    </g>
</svg>