<?xml version="1.0" encoding="UTF-8" standalone="no"?>
<svg width="126px" height="126px" viewBox="0 0 126 126" version="1.1" xmlns="http://www.w3.org/2000/svg" xmlns:xlink="http://www.w3.org/1999/xlink">
    <!-- Generator: sketchtool 3.8.3 (29802) - http://www.bohemiancoding.com/sketch -->
    <title>F35F81C0-45CB-4B19-807C-E32FB2A1D1AD</title>
    <desc>Created with sketchtool.</desc>
    <defs></defs>
    <g id="系统设置" stroke="none" stroke-width="1" fill="none" fill-rule="evenodd">
        <g id="其他特殊部分" transform="translate(-8.000000, -36.000000)">
            <g id="Group" transform="translate(8.000000, 36.000000)">
                <rect id="Rectangle-154" fill="#D6E3F5" opacity="0.64010028" x="0" y="0" width="126" height="126"></rect>
                <g id="Page-1" transform="translate(21.203285, 17.018289)" fill="#FFFFFF">
                    <path d="M62.3544137,20.2102921 L62.3544137,10.160915 C62.3544137,4.57233459 57.7819782,4.32708953e-05 52.193542,4.32708953e-05 L31.5916916,4.32708953e-05 C26.0032554,4.32708953e-05 21.4308198,4.57233459 21.4308198,10.160915 L21.4308198,20.2102921 L62.3544137,20.2102921 Z" id="Fill-1"></path>
                    <path d="M20.424858,37.1182792 C21.0886336,46.4072424 24.5883836,42.4072808 25.3099979,46.4746008 C27.0503534,56.2828147 31.0123808,54.5329397 31.0123808,59.8988192 C31.0123808,64.0347957 30.1172502,67.149579 27.8596633,69.7951616 C28.0089479,69.7762666 28.1606845,69.7655931 28.3151616,69.7655931 C30.3011515,69.7655931 31.9111173,71.3755589 31.9111173,73.3615488 C31.9111173,75.0082949 30.8039593,76.3954155 29.2938051,76.8217781 L29.2938051,76.8487503 C29.2938051,83.5845864 34.7736313,89.0644126 41.5096117,89.0644126 C48.2454478,89.0644126 53.7254182,83.5845864 53.7254182,76.8487503 L53.7254182,76.6495599 C52.4650813,76.0905 51.5856724,74.8291534 51.5856724,73.3615488 C51.5856724,71.3755589 53.1956382,69.7655931 55.1817724,69.7655931 C55.4588503,69.7655931 55.7282838,69.7979021 55.9874764,69.8571832 C53.6838782,67.1963116 52.7736028,64.0623448 52.7736028,59.8894439 C52.7736028,54.5232759 56.7351975,56.2732951 58.4857937,46.4649369 C59.197023,42.397617 62.6974942,46.3975786 63.3703567,37.1087596 C63.3703567,33.4065018 61.4566292,32.4931974 61.4566292,32.4931974 C61.4566292,32.4931974 62.4374362,27.0213042 62.8123063,22.7997956 L20.972956,22.7996513 C21.3671539,27.0211599 22.3287774,32.4931974 22.3287774,32.4931974 C22.3287774,32.4931974 20.424858,33.4161656 20.424858,37.1182792" id="Fill-3"></path>
                    <path d="M69.8994012,77.9093344 C64.9232482,76.0147903 61.2468086,74.2330391 58.6033896,72.2545495 C58.7161824,72.6034571 58.7777713,72.9752984 58.7777713,73.3615632 C58.7777713,74.8291678 57.8982182,76.0905144 56.6380255,76.6495744 L56.6380255,76.8486205 C56.6380255,84.6992591 50.6269769,91.1714312 42.9658648,91.9066037 L42.9658648,91.244559 C42.9658648,96.1866723 40.5836578,100.582563 36.9075067,103.345121 C38.5581471,103.478539 40.2669148,103.55109 42.0369829,103.55109 C68.7002204,103.552821 83.7853201,84.2467898 83.7853201,84.2467898 C80.1987398,82.1982013 75.5440895,80.0444646 69.8994012,77.9093344" id="Fill-5"></path>
                    <path d="M40.0349395,91.9046998 C32.3826258,91.1608731 26.3812411,84.6928839 26.3812411,76.8487359 L26.3812411,76.3928049 C25.3819719,75.753838 24.7189175,74.6354296 24.7189175,73.3615344 C24.7189175,73.0768119 24.7531015,72.8000224 24.8157001,72.5343391 C22.2037246,74.4056611 18.640799,76.1109671 13.8955683,77.9191136 C8.24136038,80.0540996 3.58714284,82.2078363 -1.44236319e-05,84.2562805 C-1.44236319e-05,84.2562805 9.88738526,99.0771393 31.9699657,102.739444 C36.4806681,101.112891 39.7673812,96.9036422 40.0349395,91.9046998" id="Fill-8"></path>
                </g>
            </g>
        </g>
    </g>
</svg>